<svg width="1600" height="1200" viewBox="0 0 1600 1200" fill="none" xmlns="http://www.w3.org/2000/svg">
  <rect width="1600" height="1200" fill="#EFEFEA"/>
  <rect width="1600" height="1200" fill="url(#grain)" opacity="0.2"/>
  <path d="M0 935C132 876 259 852 380 866C511 882 622 936 742 942C886 949 978 868 1099 831C1234 790 1397 805 1600 894V1200H0V935Z" fill="#D9D9D4"/>
  <path d="M0 1004C156 949 283 931 406 950C549 972 647 1044 780 1050C892 1054 994 1005 1119 977C1269 943 1429 962 1600 1038V1200H0V1004Z" fill="#C6C6C1"/>
  <circle cx="1295" cy="240" r="122" fill="#111111" opacity="0.06"/>
  <circle cx="1295" cy="240" r="84" fill="#111111" opacity="0.1"/>
  <path d="M315 828C345 815 378 804 414 796C484 779 531 759 559 727C586 696 597 652 589 596C581 543 558 492 521 444C495 411 461 382 420 358" stroke="#808080" stroke-width="18" stroke-linecap="round" opacity="0.28"/>
  <path d="M1283 790C1252 761 1216 738 1173 722C1111 699 1078 670 1054 624C1030 578 1019 523 1022 461" stroke="#6E6E6E" stroke-width="16" stroke-linecap="round" opacity="0.24"/>

  <g opacity="0.95">
    <path d="M786 273C750 273 714 278 681 291C627 313 580 354 556 417C526 495 539 589 577 663C614 735 673 795 737 828C771 846 808 857 845 857C882 857 920 846 954 827C1019 791 1078 731 1114 658C1152 582 1164 492 1133 415C1108 353 1060 312 1005 291C972 278 936 273 900 273H786Z" fill="#1B1B1B"/>
    <path d="M786 273C749 273 713 278 681 291C629 312 587 351 568 407C548 463 556 530 579 590C597 639 624 685 660 725C705 776 767 812 830 820C881 826 935 814 982 787C1031 759 1074 715 1106 663C1144 600 1166 525 1151 453C1140 396 1113 347 1067 315C1034 292 996 279 957 274C946 273 934 273 923 273H786Z" fill="url(#mateBody)"/>
    <path d="M694 321C636 344 592 390 571 451C546 523 565 607 603 674C642 744 706 807 779 833C807 843 836 849 865 849C912 849 958 834 999 808C1019 796 1038 782 1055 766C1007 792 953 807 899 809C845 811 791 798 743 773C677 738 621 681 586 610C550 538 538 454 573 390C600 341 646 309 696 292C695 301 694 311 694 321Z" fill="white" opacity="0.08"/>
    <path d="M768 225C752 251 745 281 749 316C754 357 775 393 803 421C825 443 851 461 879 477C907 493 936 508 964 525C995 544 1025 567 1050 595C1073 620 1093 650 1106 683C1114 705 1119 728 1118 751C1117 776 1108 798 1092 817C1071 841 1038 855 1008 848C981 841 959 819 948 794C936 767 934 736 938 706C942 677 953 649 968 623C983 597 1001 573 1021 551C1040 529 1061 510 1084 493C1096 485 1108 478 1121 471" stroke="#F7F7F5" stroke-width="18" stroke-linecap="round"/>
    <path d="M796 189C787 201 778 213 770 225" stroke="#F7F7F5" stroke-width="18" stroke-linecap="round"/>
    <ellipse cx="858" cy="898" rx="226" ry="38" fill="#111111" opacity="0.13"/>
  </g>

  <g opacity="0.7">
    <path d="M154 323C244 251 349 216 452 219C564 222 673 268 771 323" stroke="#2D2D2D" stroke-width="10" stroke-linecap="round" opacity="0.12"/>
    <path d="M147 377C241 315 345 288 449 292C546 296 639 333 724 385" stroke="#2D2D2D" stroke-width="8" stroke-linecap="round" opacity="0.08"/>
  </g>

  <defs>
    <linearGradient id="mateBody" x1="854" y1="273" x2="854" y2="857" gradientUnits="userSpaceOnUse">
      <stop stop-color="#353535"/>
      <stop offset="1" stop-color="#151515"/>
    </linearGradient>
    <filter id="noiseFilter">
      <feTurbulence type="fractalNoise" baseFrequency="0.65" numOctaves="2" stitchTiles="stitch"/>
    </filter>
    <pattern id="grain" width="200" height="200" patternUnits="userSpaceOnUse">
      <rect width="200" height="200" filter="url(#noiseFilter)" opacity="0.08"/>
    </pattern>
  </defs>
</svg>
