<svg xmlns="http://www.w3.org/2000/svg" width="1200" height="360" viewBox="0 0 1200 360" fill="none">
<rect width="1200" height="360" rx="48" fill="#fffdf8"/>
<rect x="32" y="32" width="1136" height="296" rx="36" fill="#4f6f52"/>
<g transform="translate(92 50)">
<rect x="154" y="0" width="12" height="152" rx="6" transform="rotate(14 154 0)" fill="#d9c9b2"/>
<circle cx="197" cy="10" r="10" fill="#d9c9b2"/>
<path d="M56 86C56 56.1766 80.1766 32 110 32H142C171.823 32 196 56.1766 196 86V154C196 207.019 153.019 250 100 250H152C98.9807 250 56 207.019 56 154V86Z" fill="#8b6b4a"/>
<ellipse cx="126" cy="92" rx="58" ry="16" fill="#d9c9b2"/>
<ellipse cx="126" cy="102" rx="45" ry="18" fill="#7a8f5b"/>
</g>
<text x="360" y="145" font-family="Arial, Helvetica, sans-serif" font-size="64" font-weight="700" letter-spacing="4" fill="#fffdf8">SENDAS DEL TAFÍ</text>
<text x="360" y="225" font-family="Arial, Helvetica, sans-serif" font-size="76" font-weight="800" letter-spacing="5" fill="#d9c9b2">MATES</text>
<text x="362" y="270" font-family="Arial, Helvetica, sans-serif" font-size="22" letter-spacing="6" fill="#c8d5b1">MATES ARTESANALES DE ARGENTINA</text>
</svg>